<?xml version="1.0" encoding="UTF-8"?>
<svg xmlns="http://www.w3.org/2000/svg" xmlns:xlink="http://www.w3.org/1999/xlink" id="Group_31" data-name="Group 31" width="24.076" height="24.076" viewBox="0 0 24.076 24.076">
  <defs>
    <clipPath id="clip-path">
      <path id="Path_20" data-name="Path 20" d="M0-20H24.076V4.076H0Z" transform="translate(0 20)" fill="none"></path>
    </clipPath>
  </defs>
  <g id="Group_22" data-name="Group 22" clip-path="url(#clip-path)">
    <g id="Group_19" data-name="Group 19">
      <path id="Path_17" data-name="Path 17" d="M2.038,3.872A10.846,10.846,0,0,1-8.8-6.962,10.846,10.846,0,0,1,2.038-17.8,10.846,10.846,0,0,1,12.872-6.962,10.846,10.846,0,0,1,2.038,3.872M2.038-19A12.051,12.051,0,0,0-10-6.962,12.051,12.051,0,0,0,2.038,5.076,12.051,12.051,0,0,0,14.076-6.962,12.051,12.051,0,0,0,2.038-19" transform="translate(10 19)" fill="#25c9d2"></path>
    </g>
    <g id="Group_20" data-name="Group 20" transform="translate(6.019 8.427)">
      <path id="Path_18" data-name="Path 18" d="M1.864.03-4.508,6.4a.6.6,0,0,1-.851,0l-2.76-2.76a.6.6,0,0,0-.851,0,.6.6,0,0,0,0,.851l2.76,2.76a1.8,1.8,0,0,0,1.277.527,1.8,1.8,0,0,0,1.276-.527L2.715.881A.6.6,0,0,0,1.864.03" transform="translate(9.146 0.146)" fill="#25c9d2"></path>
    </g>
    <g id="Group_21" data-name="Group 21" transform="translate(6.019 8.427)">
      <path id="Path_19" data-name="Path 19" d="M1.864.03-4.508,6.4a.6.6,0,0,1-.851,0l-2.76-2.76a.6.6,0,0,0-.851,0,.6.6,0,0,0,0,.851l2.76,2.76a1.8,1.8,0,0,0,1.277.527,1.8,1.8,0,0,0,1.276-.527L2.715.881A.6.6,0,0,0,1.864.03Z" transform="translate(9.146 0.146)" fill="none" stroke="#25c9d2" stroke-width="1"></path>
    </g>
  </g>
</svg>
